# xmcd
#
# Track frame offsets:
#	150
#	10535
#	26944
#	43200
#	55694
#	68498
#	80926
#	97621
#	115731
#	130401
#
# Disc length: 1930 seconds
#
# Revision: 0
# Processed by: cddbd v1.5.1PL0 Copyright (c) Steve Scherf et al.
# Submitted via: audiograbber 1.83.01
#
DISCID=7a07880a
DTITLE=Various Artist - Number 1 Country Hits (Disk Three)
DYEAR=2003
DGENRE=Classic Country
TTITLE0=Freddy Fender - Before The Next Teardrop Falls
TTITLE1=Janie Fricke - Always Have Always Will
TTITLE2=BJ Thomas - Another Sombody Done Somebody Wrong Song
TTITLE3=TG Sheppard - Tryin' To Beat The Morning Home
TTITLE4=Freddy Fender - Wasted Days And Wasted Nights
TTITLE5=Johnny Paycheck - Take This Job And Shove It
TTITLE6=TG Sheppard - Last Cheaters Waltz
TTITLE7=Freddy Fender - Secret Love
TTITLE8=Janie Fricke - Let's Stop Talkin' About It
TTITLE9=Exile - Crazy For Your Love
EXTD=
EXTT0=
EXTT1=
EXTT2=
EXTT3=
EXTT4=
EXTT5=
EXTT6=
EXTT7=
EXTT8=
EXTT9=
PLAYORDER=
